<svg width="60" height="60" viewBox="0 0 60 60" fill="none" xmlns="http://www.w3.org/2000/svg">
<path fill-rule="evenodd" clip-rule="evenodd" d="M23.9478 46.6268C24.0586 46.8218 24.2319 46.9749 24.4405 47.0619C24.5669 47.1126 24.7017 47.1399 24.8381 47.1424C24.9981 47.1363 25.1544 47.0929 25.2943 47.016C25.4343 46.939 25.5538 46.8306 25.6434 46.6994L38.8951 29.584C39.0022 29.441 39.069 29.2724 39.0887 29.0956C39.1084 28.9187 39.0803 28.7399 39.0073 28.5772C38.9232 28.4078 38.7926 28.2651 38.6304 28.1654C38.4682 28.0657 38.2809 28.0131 38.0898 28.0134H33.2478L41.2705 0H45C53.2843 0 60 6.71573 60 15V45C60 53.2843 53.2843 60 45 60H15C6.71573 60 0 53.2843 0 45V15C0 6.71573 6.71573 0 15 0H28.9964L19.7413 32.8158C19.7053 32.9659 19.7047 33.1221 19.7396 33.2724C19.7744 33.4228 19.8438 33.5632 19.9423 33.6829C20.0408 33.8025 20.1658 33.8982 20.3077 33.9626C20.4496 34.027 20.6046 34.0583 20.7606 34.0542H25.6842L23.8289 45.9846C23.7953 46.2058 23.8371 46.4317 23.9478 46.6268Z" fill="#83EA00"/>
</svg>
